<svg width="18" height="11" viewBox="0 0 18 11" fill="none" xmlns="http://www.w3.org/2000/svg">
<path d="M2.25 6.6H17.4375C17.5898 6.6 17.7217 6.65443 17.833 6.76328C17.9443 6.87214 18 7.00104 18 7.15V11H15.75V8.8H2.25V11H0V0.55C0 0.401042 0.0556641 0.272135 0.166992 0.163281C0.27832 0.0544271 0.410156 0 0.5625 0H1.6875C1.83984 0 1.97168 0.0544271 2.08301 0.163281C2.19434 0.272135 2.25 0.401042 2.25 0.55V6.6ZM7.3125 3.85C7.3125 3.24271 7.09277 2.72422 6.65332 2.29453C6.21387 1.86484 5.68359 1.65 5.0625 1.65C4.44141 1.65 3.91113 1.86484 3.47168 2.29453C3.03223 2.72422 2.8125 3.24271 2.8125 3.85C2.8125 4.45729 3.03223 4.97578 3.47168 5.40547C3.91113 5.83516 4.44141 6.05 5.0625 6.05C5.68359 6.05 6.21387 5.83516 6.65332 5.40547C7.09277 4.97578 7.3125 4.45729 7.3125 3.85ZM18 6.05V5.5C18 4.58906 17.6704 3.81133 17.0112 3.1668C16.3521 2.52227 15.5566 2.2 14.625 2.2H8.4375C8.28516 2.2 8.15332 2.25443 8.04199 2.36328C7.93066 2.47214 7.875 2.60104 7.875 2.75V6.05H18Z" fill="#274ADA"/>
</svg>
