<svg width="14" height="17" viewBox="0 0 14 17" fill="none" xmlns="http://www.w3.org/2000/svg">
<path d="M12.8333 2.12499H12.3356L12.0011 1.21124C11.8722 0.858772 11.6248 0.552149 11.294 0.334774C10.9632 0.117399 10.5657 0.000282081 10.1578 0L3.84222 0C3.43429 0.000282081 3.03679 0.117399 2.70597 0.334774C2.37516 0.552149 2.1278 0.858772 1.99889 1.21124L1.66444 2.12499H1.16667C0.857247 2.12499 0.560501 2.23693 0.341709 2.43619C0.122916 2.63544 0 2.90569 0 3.18748V3.89581C0 4.1776 0.122916 4.44785 0.341709 4.64711C0.560501 4.84636 0.857247 4.95831 1.16667 4.95831H1.55556L1.71889 7.43746L2.13111 13.8124L2.27111 15.9374C2.2711 16.0781 2.30178 16.2175 2.36138 16.3473C2.42098 16.4771 2.50831 16.5949 2.6183 16.6938C2.72829 16.7926 2.85874 16.8706 3.00209 16.9231C3.14544 16.9757 3.29882 17.0018 3.45333 16.9999H10.5389C10.8366 17.0004 11.1232 16.8972 11.3401 16.7116C11.5569 16.5259 11.6877 16.2718 11.7056 16.0012L11.8456 13.8762L12.2578 7.50121L12.4444 4.95831H12.8567C13.162 4.95274 13.4528 4.83835 13.6666 4.63969C13.8804 4.44104 14.0001 4.17396 14 3.89581V3.18748C14 2.90569 13.8771 2.63544 13.6583 2.43619C13.4395 2.23693 13.1428 2.12499 12.8333 2.12499ZM2.72222 1.41666C2.80375 1.20654 2.95577 1.02508 3.15676 0.897967C3.35776 0.770851 3.59755 0.70451 3.84222 0.708329H10.1578C10.3998 0.70748 10.6361 0.775202 10.834 0.902114C11.0319 1.02903 11.1815 1.20885 11.2622 1.41666L11.5189 2.12499H2.48111L2.72222 1.41666ZM10.92 15.9374C10.914 16.0276 10.8705 16.1123 10.7982 16.1742C10.7259 16.2361 10.6303 16.2705 10.5311 16.2703H3.45333C3.35411 16.2705 3.25857 16.2361 3.18628 16.1742C3.11398 16.1123 3.0704 16.0276 3.06444 15.9374L2.95556 14.1666H11.0522L10.92 15.9374ZM11.0911 13.4583H2.90889L2.54333 7.79162H11.4567L11.0911 13.4583ZM11.5033 7.08329H2.49667L2.33333 4.95831H11.6667L11.5033 7.08329ZM13.2222 3.89581C13.2222 3.98974 13.1813 4.07983 13.1083 4.14624C13.0354 4.21266 12.9365 4.24998 12.8333 4.24998H1.16667C1.06353 4.24998 0.964612 4.21266 0.891681 4.14624C0.81875 4.07983 0.777778 3.98974 0.777778 3.89581V3.18748C0.777778 3.09355 0.81875 3.00347 0.891681 2.93705C0.964612 2.87063 1.06353 2.83332 1.16667 2.83332H12.8333C12.9365 2.83332 13.0354 2.87063 13.1083 2.93705C13.1813 3.00347 13.2222 3.09355 13.2222 3.18748V3.89581ZM7 12.3958C7.38457 12.3958 7.76051 12.2919 8.08028 12.0973C8.40004 11.9027 8.64926 11.6262 8.79643 11.3026C8.9436 10.979 8.98211 10.623 8.90708 10.2795C8.83206 9.93596 8.64687 9.62043 8.37493 9.37278C8.10299 9.12513 7.75653 8.95647 7.37934 8.88814C7.00216 8.81982 6.61119 8.85488 6.25589 8.98891C5.90059 9.12294 5.59691 9.34991 5.38325 9.64112C5.1696 9.93233 5.05556 10.2747 5.05556 10.6249C5.05556 11.0946 5.26042 11.545 5.62507 11.8771C5.98972 12.2092 6.4843 12.3958 7 12.3958ZM7 9.56245C7.23075 9.56245 7.45631 9.62476 7.64817 9.74151C7.84002 9.85826 7.98956 10.0242 8.07786 10.2183C8.16616 10.4125 8.18927 10.6261 8.14425 10.8322C8.09923 11.0383 7.98812 11.2276 7.82496 11.3762C7.6618 11.5248 7.45392 11.626 7.22761 11.667C7.00129 11.708 6.76672 11.687 6.55354 11.6066C6.34036 11.5261 6.15815 11.39 6.02995 11.2152C5.90176 11.0405 5.83333 10.8351 5.83333 10.6249C5.83333 10.3431 5.95625 10.0729 6.17504 9.87364C6.39383 9.67439 6.69058 9.56245 7 9.56245Z" fill="#274ADA"/>
</svg>
