<svg width="18" height="18" viewBox="0 0 18 18" fill="none" xmlns="http://www.w3.org/2000/svg">
<path d="M13.504 12.9989C11.608 13.0248 9.77833 12.3017 8.4123 10.9867C7.04627 9.67172 6.25418 7.871 6.208 5.97555C6.20836 5.04551 6.39709 4.12517 6.76282 3.27004C7.12855 2.41492 7.6637 1.64271 8.336 1C6.34295 1.19677 4.4925 2.12166 3.13894 3.59761C1.78537 5.07356 1.02379 6.99686 1 8.99927C1.04831 11.1641 1.95276 13.2216 3.51523 14.7209C5.0777 16.2203 7.17079 17.0393 9.336 16.9985C10.9484 17.0126 12.5303 16.5593 13.8905 15.6933C15.2506 14.8273 16.3307 13.5858 17 12.119C15.9244 12.6944 14.7239 12.9966 13.504 12.9989Z" stroke="#274ADA" stroke-width="1.5" stroke-linecap="round" stroke-linejoin="round"/>
</svg>
